<svg width="30" height="30" viewBox="0 0 30 30" fill="none" xmlns="http://www.w3.org/2000/svg">
<path d="M15.93 15C16.6759 15 17.3913 15.2963 17.9187 15.8238C18.4462 16.3512 18.7425 17.0666 18.7425 17.8125L18.7406 19.215C18.9338 22.6594 16.2806 24.3769 11.3625 24.3769C6.46125 24.375 3.75 22.6819 3.75 19.2656V17.8125C3.75 17.0666 4.04632 16.3512 4.57376 15.8238C5.10121 15.2963 5.81658 15 6.5625 15H15.93ZM23.43 15C24.1759 15 24.8913 15.2963 25.4187 15.8238C25.9462 16.3512 26.2425 17.0666 26.2425 17.8125V18.8006C26.4113 21.8888 24.0675 23.4375 19.785 23.4375C19.2038 23.4375 18.6563 23.4094 18.1463 23.3531C19.1513 22.4231 19.6894 21.1631 19.6875 19.5694L19.6763 19.1625L19.68 17.8125C19.68 16.6913 19.1888 15.6863 18.4088 15H23.43ZM11.25 3.75C12.4932 3.75 13.6855 4.24386 14.5646 5.12294C15.4436 6.00201 15.9375 7.1943 15.9375 8.4375C15.9375 9.6807 15.4436 10.873 14.5646 11.7521C13.6855 12.6311 12.4932 13.125 11.25 13.125C10.0068 13.125 8.81451 12.6311 7.93544 11.7521C7.05636 10.873 6.5625 9.6807 6.5625 8.4375C6.5625 7.1943 7.05636 6.00201 7.93544 5.12294C8.81451 4.24386 10.0068 3.75 11.25 3.75ZM20.625 5.625C21.6196 5.625 22.5734 6.02009 23.2767 6.72335C23.9799 7.42661 24.375 8.38044 24.375 9.375C24.375 10.3696 23.9799 11.3234 23.2767 12.0267C22.5734 12.7299 21.6196 13.125 20.625 13.125C19.6304 13.125 18.6766 12.7299 17.9734 12.0267C17.2701 11.3234 16.875 10.3696 16.875 9.375C16.875 8.38044 17.2701 7.42661 17.9734 6.72335C18.6766 6.02009 19.6304 5.625 20.625 5.625Z" fill="white" fill-opacity="0.2"/>
</svg>
