<svg width="30" height="30" viewBox="0 0 30 30" fill="none" xmlns="http://www.w3.org/2000/svg">
<path d="M25.1167 2.49999C25.1167 2.27898 25.0289 2.06701 24.8726 1.91073C24.7163 1.75445 24.5044 1.66666 24.2834 1.66666H5.95003C5.72902 1.66666 5.51706 1.75445 5.36078 1.91073C5.2045 2.06701 5.1167 2.27898 5.1167 2.49999V3.33332H25.1167V2.49999Z" fill="white" fill-opacity="0.2"/>
<path d="M26.7667 5.83333C26.7667 5.61232 26.6789 5.40036 26.5226 5.24408C26.3663 5.0878 26.1544 5 25.9333 5H4.26668C4.04567 5 3.83371 5.0878 3.67743 5.24408C3.52115 5.40036 3.43335 5.61232 3.43335 5.83333V6.66667H26.7667V5.83333Z" fill="white" fill-opacity="0.2"/>
<path d="M26.7667 8.33334H3.23335C2.81785 8.33334 2.41936 8.4984 2.12555 8.79221C1.83175 9.08602 1.66669 9.4845 1.66669 9.90001V25.1C1.66669 25.5155 1.83175 25.914 2.12555 26.2078C2.41936 26.5016 2.81785 26.6667 3.23335 26.6667H26.7667C27.1822 26.6667 27.5807 26.5016 27.8745 26.2078C28.1683 25.914 28.3334 25.5155 28.3334 25.1V9.90001C28.3334 9.4845 28.1683 9.08602 27.8745 8.79221C27.5807 8.4984 27.1822 8.33334 26.7667 8.33334ZM7.13336 11.2083C7.62781 11.2083 8.11116 11.355 8.52228 11.6297C8.9334 11.9044 9.25383 12.2948 9.44305 12.7516C9.63227 13.2085 9.68178 13.7111 9.58532 14.1961C9.48885 14.681 9.25075 15.1265 8.90112 15.4761C8.55149 15.8257 8.10603 16.0638 7.62108 16.1603C7.13613 16.2568 6.63346 16.2073 6.17665 16.018C5.71983 15.8288 5.32938 15.5084 5.05468 15.0973C4.77998 14.6861 4.63335 14.2028 4.63335 13.7083C4.63335 13.0453 4.89675 12.4094 5.36559 11.9406C5.83443 11.4717 6.47031 11.2083 7.13336 11.2083ZM25 23.3333H5.00002L11.2167 17.1083C11.3275 16.9984 11.4773 16.9367 11.6334 16.9367C11.7894 16.9367 11.9392 16.9984 12.05 17.1083L15.1167 20.175L19.3417 15.8333C19.4525 15.7234 19.6023 15.6617 19.7584 15.6617C19.9144 15.6617 20.0642 15.7234 20.175 15.8333L25 20.6583V23.3333Z" fill="white" fill-opacity="0.2"/>
</svg>
