<svg width="30" height="30" viewBox="0 0 30 30" fill="none" xmlns="http://www.w3.org/2000/svg">
<path d="M12.435 4.58812C13.1976 4.08957 14.089 3.82407 15 3.82407C15.9111 3.82407 16.8025 4.08957 17.565 4.58812L27.7013 11.2144C27.8307 11.299 27.9372 11.4143 28.0112 11.55C28.0853 11.6857 28.1246 11.8377 28.1257 11.9923C28.1269 12.1469 28.0897 12.2994 28.0176 12.4362C27.9455 12.573 27.8407 12.6898 27.7125 12.7762L17.6288 19.6012C16.8531 20.1264 15.9378 20.4071 15.001 20.4071C14.0642 20.4071 13.1489 20.1264 12.3732 19.6012L3.75004 13.7681V19.6875C3.75004 19.9361 3.65126 20.1746 3.47545 20.3504C3.29963 20.5262 3.06118 20.625 2.81254 20.625C2.56389 20.625 2.32544 20.5262 2.14962 20.3504C1.97381 20.1746 1.87504 19.9361 1.87504 19.6875V12.1875C1.87504 12.1575 1.87504 12.1256 1.87879 12.0937C1.86224 11.9231 1.89261 11.7512 1.96663 11.5965C2.04065 11.4419 2.1555 11.3104 2.29879 11.2162L12.435 4.58999V4.58812Z" fill="white" fill-opacity="0.2"/>
<path d="M5.625 21.5625V17.2988L11.3212 21.1556C12.4072 21.8908 13.6886 22.2837 15 22.2837C16.3114 22.2837 17.5928 21.8908 18.6788 21.1556L24.375 17.2988V21.5625C24.3751 21.7851 24.296 22.0004 24.1519 22.17L23.4375 21.5625L24.1519 22.17L24.15 22.1738L24.1462 22.1775L24.135 22.1906L24.0975 22.2319C23.9042 22.4428 23.7022 22.6454 23.4919 22.8394C23.0794 23.22 22.4756 23.7225 21.6956 24.2269C20.1394 25.2319 17.8538 26.2519 15.0019 26.2519C12.1463 26.2519 9.8625 25.2319 8.30437 24.2269C7.66652 23.8165 7.06495 23.3523 6.50625 22.8394C6.29655 22.6455 6.09512 22.4428 5.9025 22.2319L5.865 22.1906L5.85375 22.1775L5.85 22.1738L6.5625 21.5644C5.84812 22.17 5.85 22.1719 5.85 22.1719C5.70521 22.0018 5.62547 21.7859 5.625 21.5625Z" fill="white" fill-opacity="0.2"/>
</svg>
