<svg width="30" height="30" viewBox="0 0 30 30" fill="none" xmlns="http://www.w3.org/2000/svg">
<path d="M16.2881 2.36625C15.94 2.03712 15.4791 1.85373 15 1.85373C14.5209 1.85373 14.06 2.03712 13.7119 2.36625L4.62938 10.95C4.35128 11.2132 4.12984 11.5303 3.97863 11.8821C3.82742 12.2338 3.74962 12.6127 3.75 12.9956V23.4394C3.7505 24.185 4.04703 24.8999 4.57443 25.4269C5.10182 25.9539 5.8169 26.25 6.5625 26.25H9.375C10.1209 26.25 10.8363 25.9537 11.3637 25.4262C11.8912 24.8988 12.1875 24.1834 12.1875 23.4375V18.75C12.1875 18.5014 12.2863 18.2629 12.4621 18.0871C12.6379 17.9113 12.8764 17.8125 13.125 17.8125H16.875C17.1236 17.8125 17.3621 17.9113 17.5379 18.0871C17.7137 18.2629 17.8125 18.5014 17.8125 18.75V23.4375C17.8125 24.1834 18.1088 24.8988 18.6363 25.4262C19.1637 25.9537 19.8791 26.25 20.625 26.25H23.4375C24.1834 26.25 24.8988 25.9537 25.4262 25.4262C25.9537 24.8988 26.25 24.1834 26.25 23.4375V12.9937C26.2499 12.6111 26.1717 12.2324 26.0201 11.881C25.8686 11.5296 25.647 11.2128 25.3688 10.95L16.2881 2.3625V2.36625Z" fill="white" fill-opacity="0.2"/>
</svg>
