<svg width="18" height="18" viewBox="0 0 18 18" fill="none" xmlns="http://www.w3.org/2000/svg">
<path d="M8 1C8 1 8 0 9 0C10 0 10 1 10 1V2C10 2 10 3 9 3C8 3 8 2 8 2V1ZM17 8C17 8 18 8 18 9C18 10 17 10 17 10H16C16 10 15 10 15 9C15 8 16 8 16 8H17ZM2 8C2 8 3 8 3 9C3 10 2 10 2 10H1C1 10 0 10 0 9C0 8 1 8 1 8H2ZM4.5605 3.6465C4.5605 3.6465 5.2675 4.3535 4.5605 5.0605C3.8535 5.7675 3.1465 5.0605 3.1465 5.0605L2.439 4.354C2.439 4.354 1.732 3.647 2.439 2.9395C3.1465 2.2325 3.8535 2.9395 3.8535 2.9395L4.5605 3.6465ZM15.0605 14.1465C15.0605 14.1465 15.7675 14.8535 15.0605 15.5605C14.3535 16.2675 13.6465 15.5605 13.6465 15.5605L12.9395 14.8535C12.9395 14.8535 12.2325 14.1465 12.9395 13.4395C13.6465 12.7325 14.3535 13.4395 14.3535 13.4395L15.0605 14.1465ZM14.854 5.0605C14.854 5.0605 14.147 5.7675 13.44 5.0605C12.733 4.3535 13.44 3.6465 13.44 3.6465L14.147 2.9395C14.147 2.9395 14.854 2.2325 15.561 2.9395C16.268 3.6465 15.561 4.3535 15.561 4.3535L14.854 5.0605ZM4.354 15.5605C4.354 15.5605 3.647 16.2675 2.94 15.5605C2.233 14.8535 2.94 14.1465 2.94 14.1465L3.647 13.4395C3.647 13.4395 4.354 12.7325 5.061 13.4395C5.768 14.1465 5.061 14.8535 5.061 14.8535L4.354 15.5605ZM8 16C8 16 8 15 9 15C10 15 10 16 10 16V17C10 17 10 18 9 18C8 18 8 17 8 17V16Z" fill="#FFAC33"/>
<path d="M9 14C11.7614 14 14 11.7614 14 9C14 6.23858 11.7614 4 9 4C6.23858 4 4 6.23858 4 9C4 11.7614 6.23858 14 9 14Z" fill="#FFAC33"/>
</svg>
